<svg width="22" height="25" viewBox="0 0 22 25" fill="none" xmlns="http://www.w3.org/2000/svg">
    <path fill-rule="evenodd" clip-rule="evenodd" d="M9.41434 0.525408C9.96189 1.07296 9.96189 1.96071 9.41434 2.50826L5.42057 6.50203H12.1618C17.2381 6.50203 21.3533 10.6172 21.3533 15.6935C21.3533 20.7698 17.2381 24.8849 12.1618 24.8849H5.77453C5.00018 24.8849 4.37244 24.2572 4.37244 23.4829C4.37244 22.7085 5.00018 22.0808 5.77453 22.0808H12.1618C15.6894 22.0808 18.5491 19.2211 18.5491 15.6935C18.5491 12.1659 15.6894 9.3062 12.1618 9.3062H5.42058L9.41434 13.2999C9.96189 13.8475 9.96189 14.7352 9.41434 15.2828C8.8668 15.8303 7.97904 15.8303 7.43149 15.2828L1.04421 8.89555C0.781266 8.6326 0.633545 8.27598 0.633545 7.90412C0.633544 7.53226 0.781264 7.17563 1.04421 6.91269L7.43149 0.525408C7.97904 -0.0221412 8.86679 -0.0221412 9.41434 0.525408Z" fill="black"/>
</svg>
