<svg width="27" height="29" viewBox="0 0 27 29" fill="currentColor" xmlns="http://www.w3.org/2000/svg">
    <path d="M26.8543 1.2032C26.3543 1.20329 27.3542 0.703206 26.8543 2.20324L15.3543 14.7033L20.8543 19.7033L25.3542 24.2034C26.3208 25.1699 27.1598 25.145 26.3543 26.2033H25.8542C26.3543 26.2033 25.8542 26.7034 24.8542 25.7034L19.8542 20.7034L14.3543 15.7034L2.96353 27.4125C1.90911 28.4669 1.90866 28.2578 0.854248 27.2034C3.56344 25.9942 0.799931 27.2577 1.85435 26.2033L13.3543 14.7033L0.854324 3.20324C0.854512 1.20329 0.0488044 3.26162 0.85426 2.20333H1.35445C0.854118 3.70325 0.799931 1.14883 1.85435 2.20324L14.3543 13.7033L26.3543 1.20329C27.4088 0.148877 26.8543 2.2034 26.8543 1.2032Z" fill="currentColor"/>
</svg>
