<svg width="33" height="31" viewBox="0 0 33 31" fill="none" xmlns="http://www.w3.org/2000/svg">
    <path d="M16.0657 5.41534L16.6422 6.06814L17.2186 5.41534L18.1573 4.35234C20.8841 1.26425 25.9055 0.744832 29.3433 3.23651C30.9731 4.41774 31.6654 6.23143 31.7399 8.14733C31.8149 10.0765 31.2547 12.0155 30.4926 13.283C26.2388 20.3586 22.9605 23.9094 16.6229 29.1317C13.2614 26.5865 10.8257 24.7301 8.74008 22.6488C6.57246 20.4857 4.77137 18.0661 2.74556 14.3616C0.466043 10.1933 0.646216 5.62452 3.94103 3.2365C7.37886 0.744831 12.4002 1.26425 15.1271 4.35234L16.0657 5.41534Z" stroke="black" stroke-width="1.53802" stroke-linecap="round"/>
</svg>
