<svg xmlns="http://www.w3.org/2000/svg" fill="none" viewBox="0 0 28 28" id="lock_open_outline_28" width="28px" height="28px">
    <g clip-rule="evenodd" fill="currentColor" fill-rule="evenodd">
        <path d="M14 2a5 5 0 00-5 5v4.037l-.309.02c-.728.06-1.369.186-1.961.488a5 5 0 00-2.185 2.185c-.302.592-.428 1.232-.487 1.961C4 16.4 4 17.273 4 18.357v.286c0 1.084 0 1.958.058 2.666.06.728.185 1.369.487 1.961a5 5 0 002.185 2.185c.592.302 1.233.428 1.961.487C9.4 26 10.273 26 11.357 26H16.643c1.084 0 1.958 0 2.666-.058.729-.06 1.369-.185 1.961-.487a5 5 0 002.185-2.185c.302-.592.428-1.232.487-1.961C24 20.6 24 19.727 24 18.643v-.286c0-1.084 0-1.958-.058-2.666-.06-.729-.185-1.369-.487-1.961a5 5 0 00-2.185-2.185c-.592-.302-1.232-.428-1.961-.487C18.6 11 17.727 11 16.643 11H11V7a3 3 0 116 0v1a1 1 0 102 0V7a5 5 0 00-5-5zM7.638 13.327c.263-.134.611-.226 1.216-.276.617-.05 1.41-.051 2.546-.051h5.2c1.137 0 1.929 0 2.546.051.605.05.953.142 1.216.276a3 3 0 011.311 1.311c.134.263.226.611.276 1.216.05.617.051 1.41.051 2.546v.2c0 1.137 0 1.929-.051 2.546-.05.605-.142.953-.276 1.216a3 3 0 01-1.311 1.311c-.263.134-.611.226-1.216.276-.617.05-1.41.051-2.546.051h-5.2c-1.137 0-1.929 0-2.546-.051-.605-.05-.953-.142-1.216-.276a3 3 0 01-1.311-1.311c-.134-.263-.226-.611-.276-1.216C6.001 20.529 6 19.736 6 18.6v-.2c0-1.137 0-1.929.051-2.546.05-.605.142-.953.276-1.216a3 3 0 011.311-1.311z"></path>
        <path d="M14 2a5 5 0 00-5 5v4.037l-.309.02c-.728.06-1.369.186-1.961.488a5 5 0 00-2.185 2.185c-.302.592-.428 1.232-.487 1.961C4 16.4 4 17.273 4 18.357v.286c0 1.084 0 1.958.058 2.666.06.728.185 1.369.487 1.961a5 5 0 002.185 2.185c.592.302 1.233.428 1.961.487C9.4 26 10.273 26 11.357 26h5.286c1.084 0 1.958 0 2.666-.058.729-.06 1.369-.185 1.961-.487a5 5 0 002.185-2.185c.302-.592.428-1.232.487-1.961C24 20.6 24 19.727 24 18.643v-.286c0-1.084 0-1.958-.058-2.666-.06-.729-.185-1.369-.487-1.961a5 5 0 00-2.185-2.185c-.592-.302-1.232-.428-1.961-.487C18.6 11 17.727 11 16.643 11H11V7a3 3 0 116 0v1a1 1 0 102 0V7a5 5 0 00-5-5zM7.638 13.327c.263-.134.611-.226 1.216-.276.617-.05 1.41-.051 2.546-.051h5.2c1.137 0 1.929 0 2.546.051.605.05.953.142 1.216.276a3 3 0 011.311 1.311c.134.263.226.611.276 1.216.05.617.051 1.41.051 2.546v.2c0 1.137 0 1.929-.051 2.546-.05.605-.142.953-.276 1.216a3 3 0 01-1.311 1.311c-.263.134-.611.226-1.216.276-.617.05-1.41.051-2.546.051h-5.2c-1.137 0-1.929 0-2.546-.051-.605-.05-.953-.142-1.216-.276a3 3 0 01-1.311-1.311c-.134-.263-.226-.611-.276-1.216C6.001 20.529 6 19.736 6 18.6v-.2c0-1.137 0-1.929.051-2.546.05-.605.142-.953.276-1.216a3 3 0 011.311-1.311z"></path>
    </g>
</svg>
