<svg width="31" height="30" viewBox="0 0 31 30" fill="currentColor" xmlns="http://www.w3.org/2000/svg">
    <mask id="path-1-inside-1" fill="white">
        <path fill-rule="evenodd" clip-rule="evenodd" d="M27.5713 21.7715C28.7982 19.6482 29.5002 17.1837 29.5002 14.5553C29.5002 6.57784 23.0332 0.11084 15.0558 0.11084C7.07833 0.11084 0.611328 6.57784 0.611328 14.5553C0.611328 22.5327 7.07833 28.9997 15.0558 28.9997C17.7014 28.9997 20.1809 28.2885 22.3135 27.0467L30.1647 29.707L27.5713 21.7715Z"/>
    </mask>
    <path d="M27.5713 21.7715L26.3206 21.0488L25.998 21.6072L26.1983 22.2202L27.5713 21.7715ZM22.3135 27.0467L22.777 25.6787L22.1546 25.4678L21.5867 25.7985L22.3135 27.0467ZM30.1647 29.707L29.7012 31.0751L32.4341 32.0011L31.5377 29.2583L30.1647 29.707ZM28.0558 14.5553C28.0558 16.9233 27.4239 19.1394 26.3206 21.0488L28.822 22.4941C30.1724 20.1571 30.9447 17.4442 30.9447 14.5553H28.0558ZM15.0558 1.55528C22.2355 1.55528 28.0558 7.37558 28.0558 14.5553H30.9447C30.9447 5.78009 23.831 -1.3336 15.0558 -1.3336V1.55528ZM2.05577 14.5553C2.05577 7.37558 7.87607 1.55528 15.0558 1.55528V-1.3336C6.28058 -1.3336 -0.833116 5.78009 -0.833116 14.5553H2.05577ZM15.0558 27.5553C7.87607 27.5553 2.05577 21.735 2.05577 14.5553H-0.833116C-0.833116 23.3305 6.28058 30.4442 15.0558 30.4442V27.5553ZM21.5867 25.7985C19.6688 26.9152 17.4392 27.5553 15.0558 27.5553V30.4442C17.9636 30.4442 20.693 29.6617 23.0403 28.295L21.5867 25.7985ZM30.6283 28.339L22.777 25.6787L21.8499 28.4148L29.7012 31.0751L30.6283 28.339ZM26.1983 22.2202L28.7917 30.1557L31.5377 29.2583L28.9443 21.3227L26.1983 22.2202Z" fill="black" mask="url(#path-1-inside-1)"/>
</svg>
