<svg width="31" height="31" viewBox="0 0 31 31" fill="none" xmlns="http://www.w3.org/2000/svg">
    <path fill-rule="evenodd" clip-rule="evenodd" d="M2.48618 13.8954C2.48618 7.61994 7.58991 2.51819 13.8646 2.51819C20.138 2.51819 25.2417 7.61994 25.2417 13.8954C25.2417 20.1709 20.138 25.2726 13.8646 25.2726C7.58991 25.2726 2.48618 20.1709 2.48618 13.8954ZM23.488 22.4489C25.5181 20.168 26.7586 17.177 26.7586 13.8954C26.7586 6.785 20.973 1 13.8646 1C6.7563 1 0.969238 6.785 0.969238 13.8954C0.969238 21.0058 6.7563 26.7908 13.8646 26.7908C17.1466 26.7908 20.138 25.5448 22.4148 23.5205L28.6738 29.7789C28.8241 29.9263 29.0183 30 29.2125 30C29.4054 30 29.5996 29.9263 29.747 29.7789C30.0433 29.4826 30.0433 29.0035 29.747 28.7072L23.488 22.4489Z" fill="black" stroke="black" stroke-width="0.2"/>
</svg>
