<svg width="16" height="15" viewBox="0 0 16 15" fill="none" xmlns="http://www.w3.org/2000/svg">
    <path d="M8.72628 0.729871L14.4713 6.18764C14.8546 6.55174 15.0716 7.05721 15.0716 7.58585V13.141C15.0716 14.0286 14.352 14.7482 13.4644 14.7482H9.60728C9.25224 14.7482 8.96443 14.4604 8.96443 14.1053V10.5695C8.96443 10.0369 8.5327 9.60522 8.00014 9.60522C7.46758 9.60522 7.03585 10.0369 7.03585 10.5695V14.1053C7.03585 14.4604 6.74804 14.7482 6.393 14.7482H2.53585C1.64825 14.7482 0.928711 14.0286 0.928711 13.141V7.58585C0.928711 7.05721 1.14571 6.55174 1.52898 6.18764L7.274 0.729871C7.68092 0.343298 8.31936 0.343298 8.72628 0.729871ZM8.00014 1.81344L2.41451 7.11978C2.28676 7.24115 2.21443 7.40964 2.21443 7.58585V13.141C2.21443 13.3185 2.35833 13.4625 2.53585 13.4625H5.75014V10.5695C5.75014 9.32687 6.7575 8.31951 8.00014 8.31951C9.24278 8.31951 10.2501 9.32687 10.2501 10.5695V13.4625H13.4644C13.6419 13.4625 13.7859 13.3185 13.7859 13.141V7.58585C13.7859 7.40964 13.7135 7.24115 13.5858 7.11978L8.00014 1.81344Z" fill="#99A2AD"/>
</svg>
