<svg width="16" height="16" viewBox="0 0 16 16" fill="none" xmlns="http://www.w3.org/2000/svg">
    <path d="M8.70421 0.929199C9.99631 0.931432 10.265 0.941574 10.9152 0.971241C11.6678 1.00557 12.1819 1.12512 12.6317 1.29994C13.0967 1.48063 13.491 1.72242 13.8842 2.11555C14.2773 2.5087 14.5191 2.90305 14.6998 3.36806C14.8746 3.81786 14.9942 4.3319 15.0285 5.08457C15.0582 5.73478 15.0683 6.00343 15.0705 7.29555V8.7047C15.0683 9.9968 15.0582 10.2654 15.0285 10.9157C14.9942 11.6683 14.8746 12.1824 14.6998 12.6322C14.5191 13.0972 14.2773 13.4915 13.8842 13.8847C13.491 14.2778 13.0967 14.5196 12.6317 14.7003C12.1819 14.8751 11.6678 14.9947 10.9152 15.029C10.265 15.0587 9.99631 15.0688 8.70421 15.071H7.29506C6.00294 15.0688 5.7343 15.0587 5.08409 15.029C4.33142 14.9947 3.81737 14.8751 3.36757 14.7003C2.90256 14.5196 2.50821 14.2778 2.11506 13.8847C1.72194 13.4915 1.48014 13.0972 1.29945 12.6322C1.12463 12.1824 1.00508 11.6683 0.970753 10.9157C0.941086 10.2654 0.930944 9.9968 0.928711 8.7047V7.29555C0.930944 6.00343 0.941086 5.73478 0.970753 5.08457C1.00508 4.3319 1.12463 3.81786 1.29945 3.36806C1.48014 2.90305 1.72194 2.5087 2.11506 2.11555C2.50821 1.72242 2.90256 1.48063 3.36757 1.29994C3.81737 1.12512 4.33142 1.00557 5.08409 0.971241C5.7343 0.941574 6.00294 0.931432 7.29506 0.929199H8.70421ZM8.36726 2.20293H7.63202C6.07815 2.20394 5.83639 2.21238 5.14216 2.24405C4.45271 2.27549 4.07828 2.39069 3.8291 2.48753C3.49903 2.61581 3.26346 2.76905 3.01602 3.01651C2.76856 3.26395 2.61532 3.49951 2.48704 3.82959C2.3902 4.07877 2.275 4.45319 2.24356 5.14265C2.21189 5.83688 2.20345 6.07863 2.20244 7.63251V8.36775C2.20345 9.9216 2.21189 10.1634 2.24356 10.8576C2.275 11.547 2.3902 11.9215 2.48704 12.1706C2.61532 12.5007 2.76859 12.7363 3.01602 12.9837C3.26346 13.2312 3.49903 13.3844 3.8291 13.5127C4.07828 13.6095 4.45271 13.7247 5.14216 13.7562C5.7849 13.7855 6.03972 13.7949 7.30755 13.797H8.69173C9.95954 13.7949 10.2144 13.7855 10.8571 13.7562C11.5465 13.7247 11.921 13.6095 12.1702 13.5127C12.5002 13.3844 12.7358 13.2312 12.9832 12.9837C13.2307 12.7363 13.3839 12.5007 13.5122 12.1706C13.6091 11.9215 13.7243 11.547 13.7557 10.8576C13.785 10.2148 13.7944 9.95989 13.7965 8.69216V7.30808C13.7944 6.04034 13.785 5.78546 13.7557 5.14265C13.7243 4.45319 13.6091 4.07877 13.5122 3.82959C13.3839 3.49951 13.2307 3.26395 12.9832 3.01651C12.7358 2.76905 12.5002 2.61581 12.1702 2.48753C11.921 2.39069 11.5465 2.27549 10.8571 2.24405C10.1629 2.21238 9.92111 2.20394 8.36726 2.20293ZM7.99741 4.37222C10.0023 4.37222 11.6275 5.99747 11.6275 8.00236C11.6275 10.0072 10.0023 11.6325 7.99741 11.6325C5.99252 11.6325 4.36727 10.0072 4.36727 8.00236C4.36727 5.99747 5.99252 4.37222 7.99741 4.37222ZM7.99741 5.64595C6.69599 5.64595 5.641 6.70094 5.641 8.00236C5.641 9.30376 6.69599 10.3587 7.99741 10.3587C9.29881 10.3587 10.3538 9.30376 10.3538 8.00236C10.3538 6.70094 9.29881 5.64595 7.99741 5.64595ZM11.7709 3.38048C12.2395 3.38048 12.6193 3.76029 12.6193 4.2288C12.6193 4.69731 12.2395 5.07709 11.7709 5.07709C11.3025 5.07709 10.9227 4.69731 10.9227 4.2288C10.9227 3.76029 11.3025 3.38048 11.7709 3.38048Z" fill="#99A2AD"/>
</svg>